<svg width="33" height="31" viewBox="0 0 33 31" fill="none" xmlns="http://www.w3.org/2000/svg">
<path d="M15.5648 0.692094C15.8646 -0.230698 17.1701 -0.230698 17.47 0.692094L20.6184 10.3819C20.7525 10.7946 21.137 11.074 21.571 11.074H31.7595C32.7298 11.074 33.1332 12.3156 32.3482 12.886L24.1055 18.8746C23.7545 19.1297 23.6076 19.5818 23.7417 19.9945L26.8901 29.6843C27.1899 30.6071 26.1337 31.3745 25.3488 30.8041L17.1061 24.8155C16.755 24.5604 16.2797 24.5604 15.9286 24.8155L7.68596 30.8041C6.90098 31.3745 5.84481 30.6071 6.14464 29.6843L9.29306 19.9945C9.42715 19.5818 9.28026 19.1297 8.92921 18.8746L0.686526 12.886C-0.0984477 12.3156 0.304975 11.074 1.27526 11.074H11.4638C11.8977 11.074 12.2823 10.7946 12.4164 10.3819L15.5648 0.692094Z" fill="#E8E8E8"/>
</svg>
