<svg width="54" height="51" viewBox="0 0 54 51" fill="none" xmlns="http://www.w3.org/2000/svg">
<path d="M0 29.1764C0 34.0495 4.00275 37.9999 8.9404 37.9999V20.3529C4.00275 20.3529 0 24.3033 0 29.1764Z" fill="black"/>
<path d="M54 29.1764C54 24.3033 49.9972 20.3529 45.0596 20.3529L45.0596 37.9999C49.9972 37.9999 54 34.0495 54 29.1764Z" fill="black"/>
<path d="M50.0664 24.5882C50.0664 12.1131 39.8193 2 27.1789 2C14.5386 2 4.2915 12.1131 4.2915 24.5882" stroke="black" stroke-width="2.91304"/>
<circle cx="27" cy="29.9" r="20.7" fill="#FFC400"/>
<path d="M34.226 34.9977C34.5723 34.9977 34.8676 35.2993 34.8371 35.653C34.5112 39.5746 31.2929 42.6537 27.3718 42.6537C23.4508 42.6537 20.2325 39.5746 19.9066 35.653C19.876 35.2993 20.1714 34.9977 20.5177 34.9977H34.226Z" fill="black"/>
<path d="M21.3258 22.0134C20.5558 21.1861 19.2659 21.135 18.406 21.9827C18.156 22.2278 17.696 22.9223 17.696 22.9223C17.696 22.9223 17.2361 22.238 16.9861 21.9827C16.1261 21.135 14.8362 21.1861 14.0663 22.0134C13.2963 22.8406 13.3263 24.0968 14.0663 25.0364C14.7562 25.8943 16.7661 27.9982 17.4561 28.7131C17.586 28.8459 17.796 28.8459 17.926 28.7131C18.616 27.9982 20.6259 25.8943 21.3158 25.0364C22.0658 24.0968 22.0858 22.8508 21.3258 22.0134Z" fill="black"/>
<path d="M40.0303 22.0134C39.2603 21.1861 37.9704 21.135 37.1105 21.9827C36.8605 22.2278 36.4005 22.9223 36.4005 22.9223C36.4005 22.9223 35.9405 22.238 35.6906 21.9827C34.8306 21.135 33.5407 21.1861 32.7707 22.0134C32.0008 22.8406 32.0308 24.0968 32.7707 25.0364C33.4607 25.8943 35.4706 27.9982 36.1605 28.7131C36.2905 28.8459 36.5005 28.8459 36.6305 28.7131C37.3205 27.9982 39.3303 25.8943 40.0203 25.0364C40.7702 24.0968 40.7902 22.8508 40.0303 22.0134Z" fill="black"/>
</svg>
