<svg width="54" height="51" viewBox="0 0 54 51" fill="none" xmlns="http://www.w3.org/2000/svg">
<path d="M0 29.1763C0 34.0494 4.00275 37.9998 8.9404 37.9998V20.3528C4.00275 20.3528 0 24.3032 0 29.1763Z" fill="black"/>
<path d="M54 29.1765C54 24.3034 49.9972 20.353 45.0596 20.353L45.0596 38C49.9972 38 54 34.0496 54 29.1765Z" fill="black"/>
<path d="M50.0664 24.5882C50.0664 12.1131 39.8193 2 27.1789 2C14.5386 2 4.2915 12.1131 4.2915 24.5882" stroke="black" stroke-width="2.91304"/>
<circle cx="27" cy="29.9" r="20.7" fill="#FFC400"/>
<path d="M34.2259 34.0977C34.5722 34.0977 34.8675 34.3993 34.837 34.753C34.5111 38.6746 31.2928 41.7536 27.3717 41.7536C23.4507 41.7536 20.2324 38.6746 19.9065 34.753C19.8759 34.3993 20.1713 34.0977 20.5175 34.0977H34.2259Z" fill="black"/>
<path d="M18.227 26.8058C19.3407 26.8058 20.2435 25.8837 20.2435 24.7462C20.2435 23.6087 19.3407 22.6865 18.227 22.6865C17.1133 22.6865 16.2104 23.6087 16.2104 24.7462C16.2104 25.8837 17.1133 26.8058 18.227 26.8058Z" fill="black"/>
<path d="M36.4516 26.8058C37.5653 26.8058 38.4681 25.8837 38.4681 24.7462C38.4681 23.6087 37.5653 22.6865 36.4516 22.6865C35.3379 22.6865 34.4351 23.6087 34.4351 24.7462C34.4351 25.8837 35.3379 26.8058 36.4516 26.8058Z" fill="black"/>
</svg>
