<svg width="54" height="51" viewBox="0 0 54 51" fill="none" xmlns="http://www.w3.org/2000/svg">
<path d="M0 29.1764C0 34.0495 4.00275 37.9999 8.9404 37.9999V20.3529C4.00275 20.3529 0 24.3033 0 29.1764Z" fill="black"/>
<path d="M54 29.1764C54 24.3033 49.9972 20.3529 45.0596 20.3529L45.0596 37.9999C49.9972 37.9999 54 34.0495 54 29.1764Z" fill="black"/>
<path d="M50.0664 24.5882C50.0664 12.1131 39.8193 2 27.1789 2C14.5386 2 4.2915 12.1131 4.2915 24.5882" stroke="black" stroke-width="2.91304"/>
<circle cx="27" cy="29.9" r="20.7" fill="#FFC400"/>
<path d="M38.7957 31.3695C38.7957 32.1185 38.205 32.7218 37.4717 32.7218C36.7384 32.7218 36.1477 32.1185 36.1477 31.3695C36.1477 30.4021 37.1662 28.9458 37.4208 28.6338C37.4513 28.6025 37.5022 28.6025 37.5328 28.6338C37.7772 28.9562 38.7957 30.4021 38.7957 31.3695Z" fill="black"/>
<path d="M27.3605 41.2097C23.9691 41.2097 20.985 38.9941 19.9462 35.6966C19.7629 35.1141 20.0786 34.4795 20.6489 34.2923C21.2192 34.1051 21.8405 34.4275 22.0238 35.01C22.7775 37.3817 24.9162 38.9837 27.3605 38.9837C29.8048 38.9837 31.9435 37.3921 32.6972 35.01C32.8805 34.4171 33.5018 34.0947 34.0721 34.2923C34.6424 34.4795 34.9582 35.1141 34.7748 35.6966C33.736 38.9837 30.7519 41.2097 27.3605 41.2097Z" fill="black"/>
<path d="M18.2165 26.8193C19.3302 26.8193 20.233 25.8971 20.233 24.7596C20.233 23.6221 19.3302 22.7 18.2165 22.7C17.1028 22.7 16.2 23.6221 16.2 24.7596C16.2 25.8971 17.1028 26.8193 18.2165 26.8193Z" fill="black"/>
<path d="M36.4411 26.8193C37.5548 26.8193 38.4576 25.8971 38.4576 24.7596C38.4576 23.6221 37.5548 22.7 36.4411 22.7C35.3274 22.7 34.4246 23.6221 34.4246 24.7596C34.4246 25.8971 35.3274 26.8193 36.4411 26.8193Z" fill="black"/>
</svg>
