<svg width="60" height="85" viewBox="0 0 60 85" fill="none" xmlns="http://www.w3.org/2000/svg">
<path d="M0 60.1961C0 65.6107 4.4475 70 9.93378 70V50.3922C4.4475 50.3922 0 54.7816 0 60.1961Z" fill="black"/>
<path d="M60.0001 60.196C60.0001 54.7814 55.5526 50.3921 50.0663 50.3921L50.0663 69.9999C55.5526 69.9999 60.0001 65.6105 60.0001 60.196Z" fill="black"/>
<path d="M55.6293 55.098C55.6293 41.2368 44.2437 30 30.1988 30C16.154 30 4.76834 41.2368 4.76834 55.098" stroke="black" stroke-width="2.91304"/>
<circle cx="30" cy="62" r="23" fill="#FFC400"/>
<path d="M19.8656 58.0107C21.103 58.0107 22.1062 56.9861 22.1062 55.7222C22.1062 54.4583 21.103 53.4337 19.8656 53.4337C18.6281 53.4337 17.625 54.4583 17.625 55.7222C17.625 56.9861 18.6281 58.0107 19.8656 58.0107Z" fill="black"/>
<path d="M40.1151 58.0107C41.3526 58.0107 42.3557 56.9861 42.3557 55.7222C42.3557 54.4583 41.3526 53.4337 40.1151 53.4337C38.8777 53.4337 37.8745 54.4583 37.8745 55.7222C37.8745 56.9861 38.8777 58.0107 40.1151 58.0107Z" fill="black"/>
<path d="M31.9712 11.9003H35.154C35.154 13.3274 34.7738 14.4775 34.0133 15.3507C33.0275 16.4867 31.7647 17.0548 30.2249 17.0548C28.8729 17.0548 27.7416 16.5853 26.8308 15.6465C25.9107 14.6982 25.4507 13.5387 25.4507 12.1679C25.4507 11.0788 25.7371 10.2056 26.3098 9.54842C26.8919 8.88181 27.8777 8.29971 29.2672 7.8021C30.6474 7.2951 31.5206 6.88669 31.8867 6.57686C32.2623 6.26703 32.4501 5.7882 32.4501 5.14037C32.4501 4.49254 32.2529 3.98086 31.8586 3.6053C31.4736 3.22036 30.9572 3.02789 30.3094 3.02789C29.6616 3.02789 29.1452 3.21567 28.7602 3.59122C28.3753 3.96677 28.1828 4.47846 28.1828 5.12629C28.1828 5.41734 28.2392 5.82106 28.3518 6.33745H25.0704C25.0517 6.09334 25.0329 5.87739 25.0141 5.68962C25.0047 5.50184 25 5.33284 25 5.18262C25 3.69919 25.5023 2.46456 26.5069 1.47874C27.5021 0.492912 28.7602 0 30.2812 0C31.8116 0 33.0885 0.497607 34.1119 1.49282C35.1353 2.48803 35.6469 3.73205 35.6469 5.22487C35.6469 6.75525 35.1353 7.98988 34.1119 8.92876C33.464 9.52025 32.2435 10.093 30.4502 10.6469C29.2297 11.0225 28.6194 11.614 28.6194 12.4214C28.6194 12.6467 28.6617 12.8627 28.7462 13.0692C28.8401 13.2664 28.9621 13.4401 29.1123 13.5903C29.2625 13.7405 29.4362 13.8579 29.6334 13.9424C29.84 14.0269 30.0559 14.0691 30.2812 14.0691C31.314 14.0691 31.8773 13.3462 31.9712 11.9003ZM28.38 20.477C28.38 19.9512 28.5725 19.4959 28.9574 19.1109C29.3424 18.726 29.8024 18.5335 30.3376 18.5335C30.8727 18.5335 31.3328 18.726 31.7177 19.1109C32.1027 19.4959 32.2951 19.9559 32.2951 20.4911C32.2951 21.0356 32.1027 21.5004 31.7177 21.8853C31.3422 22.2609 30.8868 22.4486 30.3517 22.4486C29.7977 22.4486 29.333 22.2609 28.9574 21.8853C28.5725 21.5004 28.38 21.0309 28.38 20.477Z" fill="black"/>
</svg>
