<svg width="54" height="51" viewBox="0 0 54 51" fill="none" xmlns="http://www.w3.org/2000/svg">
<path d="M0 29.1764C0 34.0495 4.00275 37.9999 8.9404 37.9999V20.3529C4.00275 20.3529 0 24.3033 0 29.1764Z" fill="black"/>
<path d="M54 29.1764C54 24.3033 49.9972 20.3529 45.0596 20.3529L45.0596 37.9999C49.9972 37.9999 54 34.0495 54 29.1764Z" fill="black"/>
<path d="M50.0664 24.5882C50.0664 12.1131 39.8193 2 27.1789 2C14.5386 2 4.2915 12.1131 4.2915 24.5882" stroke="black" stroke-width="2.91304"/>
<circle cx="27" cy="29.9" r="20.7" fill="#FFC400"/>
<path d="M20.3338 40.5751C19.9893 40.5751 19.6954 40.275 19.7258 39.9231C20.0501 36.0211 23.2522 32.9575 27.1536 32.9575C31.055 32.9575 34.2572 36.0211 34.5814 39.9231C34.6118 40.275 34.318 40.5751 33.9734 40.5751H20.3338Z" fill="black"/>
<path d="M18.0543 26.0296C19.1624 26.0296 20.0607 25.1121 20.0607 23.9803C20.0607 22.8485 19.1624 21.931 18.0543 21.931C16.9462 21.931 16.0479 22.8485 16.0479 23.9803C16.0479 25.1121 16.9462 26.0296 18.0543 26.0296Z" fill="black"/>
<path d="M36.1876 26.0296C37.2957 26.0296 38.194 25.1121 38.194 23.9803C38.194 22.8485 37.2957 21.931 36.1876 21.931C35.0795 21.931 34.1812 22.8485 34.1812 23.9803C34.1812 25.1121 35.0795 26.0296 36.1876 26.0296Z" fill="black"/>
</svg>
