
<svg width="33" height="31" viewBox="0 0 33 31" fill="none" xmlns="http://www.w3.org/2000/svg">
<path d="M15.2931 0.692094C15.5929 -0.230698 16.8984 -0.230698 17.1982 0.692094L20.3466 10.3819C20.4807 10.7946 20.8653 11.074 21.2992 11.074H31.4877C32.458 11.074 32.8615 12.3156 32.0765 12.886L23.8338 18.8746C23.4827 19.1297 23.3358 19.5818 23.4699 19.9945L26.6184 29.6843C26.9182 30.6071 25.862 31.3745 25.077 30.8041L16.8344 24.8155C16.4833 24.5604 16.008 24.5604 15.6569 24.8155L7.41423 30.8041C6.62925 31.3745 5.57308 30.6071 5.87291 29.6843L9.02133 19.9945C9.15542 19.5818 9.00853 19.1297 8.65748 18.8746L0.414797 12.886C-0.370176 12.3156 0.0332468 11.074 1.00353 11.074H11.192C11.626 11.074 12.0105 10.7946 12.1446 10.3819L15.2931 0.692094Z" fill="#FFC400"/>
</svg>
